ISO-10303-21;
HEADER;
/* Generated by software containing ST-Developer
 * from STEP Tools, Inc. (www.steptools.com) 
 */

FILE_DESCRIPTION(
/* description */ (''),
/* implementation_level */ '2;1');

FILE_NAME(
/* name */ 'Caster.step',
/* time_stamp */ '2026-05-29T14:11:03+01:00',
/* author */ (''),
/* organization */ (''),
/* preprocessor_version */ 'ST-DEVELOPER v20.1',
/* originating_system */ 'Autodesk Translation Framework v15.8.0.0',
/* authorisation */ '');

FILE_SCHEMA (('AUTOMOTIVE_DESIGN { 1 0 10303 214 3 1 1 }'));
ENDSEC;

DATA;
#10=MECHANICAL_DESIGN_GEOMETRIC_PRESENTATION_REPRESENTATION('',(#13),#197);
#11=SHAPE_REPRESENTATION_RELATIONSHIP('SRR','None',#204,#12);
#12=ADVANCED_BREP_SHAPE_REPRESENTATION('',(#14),#196);
#13=STYLED_ITEM('',(#214),#14);
#14=MANIFOLD_SOLID_BREP('Caster',#101);
#15=FACE_BOUND('',#36,.T.);
#16=FACE_BOUND('',#39,.T.);
#17=PLANE('',#126);
#18=PLANE('',#130);
#19=SPHERICAL_SURFACE('',#123,15.);
#20=LINE('',#180,#22);
#21=LINE('',#191,#23);
#22=VECTOR('',#147,2.75);
#23=VECTOR('',#162,1.75);
#24=CYLINDRICAL_SURFACE('',#121,2.75);
#25=CYLINDRICAL_SURFACE('',#128,1.75);
#26=FACE_OUTER_BOUND('',#32,.T.);
#27=FACE_OUTER_BOUND('',#33,.T.);
#28=FACE_OUTER_BOUND('',#34,.T.);
#29=FACE_OUTER_BOUND('',#35,.T.);
#30=FACE_OUTER_BOUND('',#37,.T.);
#31=FACE_OUTER_BOUND('',#38,.T.);
#32=EDGE_LOOP('',(#70,#71,#72,#73,#74,#75));
#33=EDGE_LOOP('',(#76,#77,#78,#79,#80));
#34=EDGE_LOOP('',(#81,#82,#83,#84,#85));
#35=EDGE_LOOP('',(#86));
#36=EDGE_LOOP('',(#87));
#37=EDGE_LOOP('',(#88,#89,#90,#91));
#38=EDGE_LOOP('',(#92));
#39=EDGE_LOOP('',(#93));
#40=CIRCLE('',#116,5.48076923076923);
#41=CIRCLE('',#117,2.);
#42=CIRCLE('',#118,2.75);
#43=CIRCLE('',#119,2.75);
#44=CIRCLE('',#120,5.48076923076923);
#45=CIRCLE('',#122,2.75);
#46=CIRCLE('',#124,15.);
#47=CIRCLE('',#125,15.);
#48=CIRCLE('',#127,1.75);
#49=CIRCLE('',#129,1.75000039613742);
#50=VERTEX_POINT('',#169);
#51=VERTEX_POINT('',#170);
#52=VERTEX_POINT('',#172);
#53=VERTEX_POINT('',#174);
#54=VERTEX_POINT('',#179);
#55=VERTEX_POINT('',#183);
#56=VERTEX_POINT('',#187);
#57=VERTEX_POINT('',#190);
#58=EDGE_CURVE('',#50,#51,#40,.T.);
#59=EDGE_CURVE('',#51,#52,#41,.T.);
#60=EDGE_CURVE('',#52,#53,#42,.T.);
#61=EDGE_CURVE('',#53,#52,#43,.T.);
#62=EDGE_CURVE('',#51,#50,#44,.T.);
#63=EDGE_CURVE('',#53,#54,#20,.T.);
#64=EDGE_CURVE('',#54,#54,#45,.T.);
#65=EDGE_CURVE('',#55,#55,#46,.T.);
#66=EDGE_CURVE('',#55,#50,#47,.T.);
#67=EDGE_CURVE('',#56,#56,#48,.T.);
#68=EDGE_CURVE('',#56,#57,#21,.T.);
#69=EDGE_CURVE('',#57,#57,#49,.T.);
#70=ORIENTED_EDGE('',*,*,#58,.T.);
#71=ORIENTED_EDGE('',*,*,#59,.T.);
#72=ORIENTED_EDGE('',*,*,#60,.T.);
#73=ORIENTED_EDGE('',*,*,#61,.T.);
#74=ORIENTED_EDGE('',*,*,#59,.F.);
#75=ORIENTED_EDGE('',*,*,#62,.T.);
#76=ORIENTED_EDGE('',*,*,#61,.F.);
#77=ORIENTED_EDGE('',*,*,#63,.T.);
#78=ORIENTED_EDGE('',*,*,#64,.T.);
#79=ORIENTED_EDGE('',*,*,#63,.F.);
#80=ORIENTED_EDGE('',*,*,#60,.F.);
#81=ORIENTED_EDGE('',*,*,#65,.F.);
#82=ORIENTED_EDGE('',*,*,#66,.T.);
#83=ORIENTED_EDGE('',*,*,#62,.F.);
#84=ORIENTED_EDGE('',*,*,#58,.F.);
#85=ORIENTED_EDGE('',*,*,#66,.F.);
#86=ORIENTED_EDGE('',*,*,#64,.F.);
#87=ORIENTED_EDGE('',*,*,#67,.T.);
#88=ORIENTED_EDGE('',*,*,#67,.F.);
#89=ORIENTED_EDGE('',*,*,#68,.T.);
#90=ORIENTED_EDGE('',*,*,#69,.F.);
#91=ORIENTED_EDGE('',*,*,#68,.F.);
#92=ORIENTED_EDGE('',*,*,#65,.T.);
#93=ORIENTED_EDGE('',*,*,#69,.T.);
#94=TOROIDAL_SURFACE('',#115,4.75,2.);
#95=ADVANCED_FACE('',(#26),#94,.T.);
#96=ADVANCED_FACE('',(#27),#24,.F.);
#97=ADVANCED_FACE('',(#28),#19,.T.);
#98=ADVANCED_FACE('',(#29,#15),#17,.F.);
#99=ADVANCED_FACE('',(#30),#25,.F.);
#100=ADVANCED_FACE('',(#31,#16),#18,.T.);
#101=CLOSED_SHELL('',(#95,#96,#97,#98,#99,#100));
#102=DERIVED_UNIT_ELEMENT(#104,1.);
#103=DERIVED_UNIT_ELEMENT(#199,-3.);
#104=(
MASS_UNIT()
NAMED_UNIT(*)
SI_UNIT(.KILO.,.GRAM.)
);
#105=DERIVED_UNIT((#102,#103));
#106=MEASURE_REPRESENTATION_ITEM('density measure',
POSITIVE_RATIO_MEASURE(7850.),#105);
#107=PROPERTY_DEFINITION_REPRESENTATION(#112,#109);
#108=PROPERTY_DEFINITION_REPRESENTATION(#113,#110);
#109=REPRESENTATION('material name',(#111),#196);
#110=REPRESENTATION('density',(#106),#196);
#111=DESCRIPTIVE_REPRESENTATION_ITEM('Steel','Steel');
#112=PROPERTY_DEFINITION('material property','material name',#206);
#113=PROPERTY_DEFINITION('material property','density of part',#206);
#114=AXIS2_PLACEMENT_3D('',#167,#131,#132);
#115=AXIS2_PLACEMENT_3D('',#168,#133,#134);
#116=AXIS2_PLACEMENT_3D('',#171,#135,#136);
#117=AXIS2_PLACEMENT_3D('',#173,#137,#138);
#118=AXIS2_PLACEMENT_3D('',#175,#139,#140);
#119=AXIS2_PLACEMENT_3D('',#176,#141,#142);
#120=AXIS2_PLACEMENT_3D('',#177,#143,#144);
#121=AXIS2_PLACEMENT_3D('',#178,#145,#146);
#122=AXIS2_PLACEMENT_3D('',#181,#148,#149);
#123=AXIS2_PLACEMENT_3D('',#182,#150,#151);
#124=AXIS2_PLACEMENT_3D('',#184,#152,#153);
#125=AXIS2_PLACEMENT_3D('',#185,#154,#155);
#126=AXIS2_PLACEMENT_3D('',#186,#156,#157);
#127=AXIS2_PLACEMENT_3D('',#188,#158,#159);
#128=AXIS2_PLACEMENT_3D('',#189,#160,#161);
#129=AXIS2_PLACEMENT_3D('',#192,#163,#164);
#130=AXIS2_PLACEMENT_3D('',#193,#165,#166);
#131=DIRECTION('axis',(0.,0.,1.));
#132=DIRECTION('refdir',(1.,0.,0.));
#133=DIRECTION('center_axis',(-0.000524067409571636,0.000421997241797153,
0.999999773635813));
#134=DIRECTION('ref_axis',(0.999999862676641,0.,0.000524067456234855));
#135=DIRECTION('center_axis',(0.000524067409571636,-0.000421997241797153,
-0.999999773635813));
#136=DIRECTION('ref_axis',(-0.999999862676641,4.92819169311593E-19,-0.000524067456235072));
#137=DIRECTION('center_axis',(-2.21155020924503E-7,-0.99999991095916,0.000421997183847074));
#138=DIRECTION('ref_axis',(-0.999999862676641,-1.22394378582808E-16,-0.000524067456235184));
#139=DIRECTION('center_axis',(-0.000524067409571636,0.000421997241797153,
0.999999773635813));
#140=DIRECTION('ref_axis',(-0.999999862676641,4.92819169311593E-19,-0.000524067456235072));
#141=DIRECTION('center_axis',(-0.000524067409571636,0.000421997241797153,
0.999999773635813));
#142=DIRECTION('ref_axis',(-0.999999862676641,4.92819169311593E-19,-0.000524067456235072));
#143=DIRECTION('center_axis',(0.000524067409571636,-0.000421997241797153,
-0.999999773635813));
#144=DIRECTION('ref_axis',(-0.999999862676641,4.92819169311593E-19,-0.000524067456235072));
#145=DIRECTION('center_axis',(-0.000524067409571636,0.000421997241797153,
0.999999773635813));
#146=DIRECTION('ref_axis',(-0.999999862676641,0.,-0.000524067456235042));
#147=DIRECTION('',(-0.000524067409571636,0.000421997241797153,0.999999773635813));
#148=DIRECTION('center_axis',(-0.000524067409571636,0.000421997241797153,
0.999999773635813));
#149=DIRECTION('ref_axis',(-0.999999862676641,0.,-0.000524067456235042));
#150=DIRECTION('center_axis',(6.12323399573677E-17,0.,1.));
#151=DIRECTION('ref_axis',(1.,0.,0.));
#152=DIRECTION('center_axis',(0.,0.,1.));
#153=DIRECTION('ref_axis',(0.,1.,0.));
#154=DIRECTION('center_axis',(1.22464679914735E-16,-1.,0.));
#155=DIRECTION('ref_axis',(-1.,-1.22464679914735E-16,0.));
#156=DIRECTION('center_axis',(-0.000524067409571636,0.000421997241797153,
0.999999773635813));
#157=DIRECTION('ref_axis',(-0.999999862676641,0.,-0.000524067456235042));
#158=DIRECTION('center_axis',(-0.000524067409571636,0.000421997241797153,
0.999999773635813));
#159=DIRECTION('ref_axis',(-0.999999862676641,0.,-0.000524067456235042));
#160=DIRECTION('center_axis',(-0.000524067409571636,0.000421997241797153,
0.999999773635813));
#161=DIRECTION('ref_axis',(-0.999999862676641,0.,-0.000524067456235042));
#162=DIRECTION('',(-0.000524067409571635,0.000421997241797152,0.999999773635813));
#163=DIRECTION('center_axis',(0.,0.,-1.));
#164=DIRECTION('ref_axis',(-0.778875998246194,0.627177948716307,0.));
#165=DIRECTION('center_axis',(0.,0.,1.));
#166=DIRECTION('ref_axis',(1.,0.,0.));
#167=CARTESIAN_POINT('',(0.,0.,0.));
#168=CARTESIAN_POINT('Origin',(0.0063418111590022,-0.00510664614554993,
-12.1011335710171));
#169=CARTESIAN_POINT('',(-5.47344783506484,-6.71200169472725E-16,-13.9657212057532));
#170=CARTESIAN_POINT('',(-5.47345100371736,-0.00589228401409674,-13.9657187208856));
#171=CARTESIAN_POINT('Origin',(0.0073174744142333,-0.00589228401409608,
-13.9628464280966));
#172=CARTESIAN_POINT('',(-2.74365781120176,-0.00510664614555027,-12.1025747565217));
#173=CARTESIAN_POINT('Origin',(-4.74365753655504,-0.00510664614555051,-12.1036228914342));
#174=CARTESIAN_POINT('',(2.75634143351977,-0.0051066461455496,-12.0996923855124));
#175=CARTESIAN_POINT('Origin',(0.0063418111590022,-0.00510664614554993,
-12.1011335710171));
#176=CARTESIAN_POINT('Origin',(0.0063418111590022,-0.00510664614554993,
-12.1011335710171));
#177=CARTESIAN_POINT('Origin',(0.0073174744142333,-0.00589228401409608,
-13.9628464280966));
#178=CARTESIAN_POINT('Origin',(0.00576474150528799,-0.00464196965976868,
-10.9999975099939));
#179=CARTESIAN_POINT('',(2.75366809422777,-0.00295398069257973,-6.99855722994605));
#180=CARTESIAN_POINT('',(2.75576436386605,-0.00464196965976834,-10.9985563244893));
#181=CARTESIAN_POINT('Origin',(0.00366847186700145,-0.00295398069258007,
-6.99999841545069));
#182=CARTESIAN_POINT('Origin',(0.,0.,0.));
#183=CARTESIAN_POINT('',(-15.,-1.83697019872103E-15,0.));
#184=CARTESIAN_POINT('Origin',(0.,0.,0.));
#185=CARTESIAN_POINT('Origin',(0.,0.,0.));
#186=CARTESIAN_POINT('Origin',(0.00366847186700145,-0.00295398069258007,
-6.99999841545069));
#187=CARTESIAN_POINT('',(1.75366823155112,-0.00295398069257985,-6.99908129740228));
#188=CARTESIAN_POINT('Origin',(0.00366847186700145,-0.00295398069258007,
-6.99999841545069));
#189=CARTESIAN_POINT('Origin',(0.00366847186700145,-0.00295398069258007,
-6.99999841545069));
#190=CARTESIAN_POINT('',(1.75000024031591,-3.87021374363443E-7,0.));
#191=CARTESIAN_POINT('',(1.75366823155112,-0.00295398069257985,-6.99908129740228));
#192=CARTESIAN_POINT('Origin',(0.,-5.42101086242752E-19,0.));
#193=CARTESIAN_POINT('Origin',(0.,0.,0.));
#194=UNCERTAINTY_MEASURE_WITH_UNIT(LENGTH_MEASURE(0.01),#198,
'DISTANCE_ACCURACY_VALUE',
'Maximum model space distance between geometric entities at asserted c
onnectivities');
#195=UNCERTAINTY_MEASURE_WITH_UNIT(LENGTH_MEASURE(0.01),#198,
'DISTANCE_ACCURACY_VALUE',
'Maximum model space distance between geometric entities at asserted c
onnectivities');
#196=(
GEOMETRIC_REPRESENTATION_CONTEXT(3)
GLOBAL_UNCERTAINTY_ASSIGNED_CONTEXT((#194))
GLOBAL_UNIT_ASSIGNED_CONTEXT((#198,#200,#201))
REPRESENTATION_CONTEXT('','3D')
);
#197=(
GEOMETRIC_REPRESENTATION_CONTEXT(3)
GLOBAL_UNCERTAINTY_ASSIGNED_CONTEXT((#195))
GLOBAL_UNIT_ASSIGNED_CONTEXT((#198,#200,#201))
REPRESENTATION_CONTEXT('','3D')
);
#198=(
LENGTH_UNIT()
NAMED_UNIT(*)
SI_UNIT(.MILLI.,.METRE.)
);
#199=(
LENGTH_UNIT()
NAMED_UNIT(*)
SI_UNIT($,.METRE.)
);
#200=(
NAMED_UNIT(*)
PLANE_ANGLE_UNIT()
SI_UNIT($,.RADIAN.)
);
#201=(
NAMED_UNIT(*)
SI_UNIT($,.STERADIAN.)
SOLID_ANGLE_UNIT()
);
#202=SHAPE_DEFINITION_REPRESENTATION(#203,#204);
#203=PRODUCT_DEFINITION_SHAPE('',$,#206);
#204=SHAPE_REPRESENTATION('',(#114),#196);
#205=PRODUCT_DEFINITION_CONTEXT('part definition',#210,'design');
#206=PRODUCT_DEFINITION('2026-05-04-20-40-59-953','Caster',#207,#205);
#207=PRODUCT_DEFINITION_FORMATION('',$,#212);
#208=PRODUCT_RELATED_PRODUCT_CATEGORY('Caster','Caster',(#212));
#209=APPLICATION_PROTOCOL_DEFINITION('international standard',
'automotive_design',2009,#210);
#210=APPLICATION_CONTEXT(
'Core Data for Automotive Mechanical Design Process');
#211=PRODUCT_CONTEXT('part definition',#210,'mechanical');
#212=PRODUCT('2026-05-04-20-40-59-953','Caster',$,(#211));
#213=PRESENTATION_STYLE_ASSIGNMENT((#215));
#214=PRESENTATION_STYLE_ASSIGNMENT((#216));
#215=SURFACE_STYLE_USAGE(.BOTH.,#217);
#216=SURFACE_STYLE_USAGE(.BOTH.,#218);
#217=SURFACE_SIDE_STYLE('',(#219));
#218=SURFACE_SIDE_STYLE('',(#220));
#219=SURFACE_STYLE_FILL_AREA(#221);
#220=SURFACE_STYLE_FILL_AREA(#222);
#221=FILL_AREA_STYLE('Steel - Satin',(#223));
#222=FILL_AREA_STYLE('PEEK',(#224));
#223=FILL_AREA_STYLE_COLOUR('Steel - Satin',#225);
#224=FILL_AREA_STYLE_COLOUR('PEEK',#226);
#225=COLOUR_RGB('Steel - Satin',0.627450980392157,0.627450980392157,0.627450980392157);
#226=COLOUR_RGB('PEEK',0.6,0.509803921568627,0.368627450980392);
ENDSEC;
END-ISO-10303-21;
